<?xml version="1.0" encoding="iso-8859-1"?>
<!-- Generator: Adobe Illustrator 19.0.0, SVG Export Plug-In . SVG Version: 6.00 Build 0)  -->
<svg version="1.1" id="Capa_1" xmlns="http://www.w3.org/2000/svg" xmlns:xlink="http://www.w3.org/1999/xlink" x="0px" y="0px"
	 viewBox="0 0 480 480" style="enable-background:new 0 0 480 480;" xml:space="preserve">
<linearGradient id="SVGID_1_" gradientUnits="userSpaceOnUse" x1="-58.752" y1="587.625" x2="5.245" y2="587.625" gradientTransform="matrix(8 0 0 -8 454.9999 4941)">
	<stop  offset="0" style="stop-color:#F9A86D"/>
	<stop  offset="0.503" style="stop-color:#F05361"/>
	<stop  offset="1" style="stop-color:#B72563"/>
</linearGradient>
<path style="fill:url(#SVGID_1_);" d="M464,80h-80v32h-32.936l-8-64H200.936l-8,64H112V80H96V48H32v32H16v32H0v320h480V112h-16V80z
	 M400,96h48v16h-48V96z M215.064,64h113.872l6,48H209.064L215.064,64z M48,64h32v16H48V64z M32,96h64v16H32V96z M464,416H16v-16h448
	V416z M464,384H16V192h196.216c-35.448,50.691-23.092,120.521,27.599,155.969s120.521,23.092,155.969-27.599
	c26.955-38.545,26.955-89.825,0-128.37H464V384z M242.272,182.576c1.68-1.416,3.44-2.704,5.2-4c0.856-0.632,1.68-1.32,2.56-1.92
	c1.192-0.8,2.448-1.52,3.664-2.28c1.52-0.936,3-1.92,4.56-2.768l0.36-0.176c28.334-15.253,62.434-15.253,90.768,0l0.36,0.176
	c1.6,0.856,3.048,1.84,4.568,2.776c1.216,0.76,2.464,1.456,3.656,2.272c0.888,0.6,1.712,1.296,2.576,1.928
	c1.752,1.288,3.504,2.568,5.184,4c0.52,0.448,1.008,0.936,1.528,1.392c1.904,1.68,3.784,3.408,5.6,5.256
	c36.958,38.015,36.102,98.793-1.913,135.751s-98.793,36.102-135.751-1.913c-36.224-37.26-36.224-96.579,0-133.838
	c1.792-1.848,3.672-3.576,5.6-5.256C241.264,183.512,241.752,183.024,242.272,182.576z M464,176h-81.728
	c-0.624-0.616-1.312-1.136-1.944-1.736c-1.888-1.76-3.776-3.52-5.784-5.152c-1.448-1.184-2.976-2.24-4.48-3.344
	c-1.32-0.976-2.6-1.992-4-2.904c-2.216-1.496-4.512-2.832-6.824-4.152c-0.744-0.424-1.456-0.904-2.216-1.312
	c-2.736-1.48-5.536-2.8-8.384-4.048c-0.432-0.184-0.848-0.416-1.288-0.6c-2.976-1.256-6.016-2.344-9.096-3.336
	c-0.392-0.128-0.8-0.288-1.16-0.408c-2.984-0.928-6.024-1.672-9.096-2.344c-0.56-0.12-1.096-0.296-1.664-0.408
	c-2.936-0.6-5.92-1.008-8.92-1.368c-0.728-0.088-1.432-0.24-2.168-0.32C311.56,144.2,307.792,144,304,144s-7.56,0.2-11.28,0.568
	c-0.736,0.08-1.44,0.232-2.168,0.32c-3,0.36-5.984,0.8-8.92,1.368c-0.568,0.112-1.104,0.288-1.664,0.408
	c-3.072,0.672-6.112,1.416-9.096,2.344c-0.392,0.12-0.8,0.28-1.16,0.408c-3.08,0.992-6.12,2.08-9.096,3.336
	c-0.44,0.184-0.856,0.416-1.288,0.6c-2.848,1.248-5.648,2.568-8.384,4.048c-0.76,0.408-1.472,0.888-2.216,1.312
	c-2.312,1.32-4.608,2.656-6.824,4.152c-1.368,0.912-2.648,1.928-4,2.904c-1.504,1.104-3.032,2.16-4.48,3.344
	c-2.008,1.6-3.896,3.392-5.784,5.152c-0.632,0.6-1.32,1.12-1.944,1.736H16v-48h448L464,176z"/>
<linearGradient id="SVGID_2_" gradientUnits="userSpaceOnUse" x1="-58.752" y1="598.625" x2="5.248" y2="598.625" gradientTransform="matrix(8 0 0 -8 454.9999 4941)">
	<stop  offset="0" style="stop-color:#F9A86D"/>
	<stop  offset="0.503" style="stop-color:#F05361"/>
	<stop  offset="1" style="stop-color:#B72563"/>
</linearGradient>
<path style="fill:url(#SVGID_2_);" d="M32,144h64v16H32V144z"/>
<g>
	
		<linearGradient id="SVGID_3_" gradientUnits="userSpaceOnUse" x1="-58.752" y1="580.625" x2="5.245" y2="580.625" gradientTransform="matrix(8 0 0 -8 454.9999 4941)">
		<stop  offset="0" style="stop-color:#F9A86D"/>
		<stop  offset="0.503" style="stop-color:#F05361"/>
		<stop  offset="1" style="stop-color:#B72563"/>
	</linearGradient>
	<path style="fill:url(#SVGID_3_);" d="M80,224h16v144H80V224z"/>
	
		<linearGradient id="SVGID_4_" gradientUnits="userSpaceOnUse" x1="-58.752" y1="585.625" x2="5.245" y2="585.625" gradientTransform="matrix(8 0 0 -8 454.9999 4941)">
		<stop  offset="0" style="stop-color:#F9A86D"/>
		<stop  offset="0.503" style="stop-color:#F05361"/>
		<stop  offset="1" style="stop-color:#B72563"/>
	</linearGradient>
	<path style="fill:url(#SVGID_4_);" d="M224,256c0,44.183,35.817,80,80,80s80-35.817,80-80s-35.817-80-80-80
		C259.837,176.048,224.048,211.837,224,256z M304,192c35.346,0,64,28.654,64,64s-28.654,64-64,64s-64-28.654-64-64
		C240.04,220.67,268.67,192.04,304,192z"/>
	
		<linearGradient id="SVGID_5_" gradientUnits="userSpaceOnUse" x1="-58.752" y1="588.125" x2="5.245" y2="588.125" gradientTransform="matrix(8 0 0 -8 454.9999 4941)">
		<stop  offset="0" style="stop-color:#F9A86D"/>
		<stop  offset="0.503" style="stop-color:#F05361"/>
		<stop  offset="1" style="stop-color:#B72563"/>
	</linearGradient>
	<path style="fill:url(#SVGID_5_);" d="M264,264c4.418,0,8-3.582,8-8c0-17.673,14.327-32,32-32c4.418,0,8-3.582,8-8s-3.582-8-8-8
		c-26.499,0.026-47.974,21.501-48,48C256,260.418,259.582,264,264,264z"/>
	
		<linearGradient id="SVGID_6_" gradientUnits="userSpaceOnUse" x1="-58.752" y1="574.625" x2="5.245" y2="574.625" gradientTransform="matrix(8 0 0 -8 454.9999 4941)">
		<stop  offset="0" style="stop-color:#F9A86D"/>
		<stop  offset="0.503" style="stop-color:#F05361"/>
		<stop  offset="1" style="stop-color:#B72563"/>
	</linearGradient>
	<path style="fill:url(#SVGID_6_);" d="M184,320c-13.255,0-24,10.745-24,24s10.745,24,24,24c13.255,0,24-10.745,24-24
		S197.255,320,184,320z M184,352c-4.418,0-8-3.582-8-8s3.582-8,8-8s8,3.582,8,8S188.418,352,184,352z"/>
</g>
<g>
</g>
<g>
</g>
<g>
</g>
<g>
</g>
<g>
</g>
<g>
</g>
<g>
</g>
<g>
</g>
<g>
</g>
<g>
</g>
<g>
</g>
<g>
</g>
<g>
</g>
<g>
</g>
<g>
</g>
</svg>
